# xmcd
#
# Track frame offsets:
#	150
#	3607
#	17295
#	25002
#	36235
#	52512
#	64167
#	76907
#	86657
#	97945
#	103657
#	108275
#	111762
#	120102
#	130682
#	136820
#	148430
#	160162
#	167680
#	180520
#	188707
#	199445
#	203355
#
# Disc length: 2770 seconds
#
# Revision: 0
# Processed by: cddbd v1.5.1PL0 Copyright (c) Steve Scherf et al.
# Submitted via: EasyCDDAExtractor 4.6.9.1
#
DISCID=1b0ad017
DTITLE=The Sauceman Brothers - On WYCB Bristol
DYEAR=1994
DGENRE=Bluegrass
TTITLE0=Theme And Introduction
TTITLE1=I'm Not Worth Your Tears
TTITLE2=Asheville
TTITLE3=It's Glory For Me
TTITLE4=No Letter In The Mail
TTITLE5=This Side Of Heaven
TTITLE6=Anywhere Is Home
TTITLE7=Down The Road
TTITLE8=Jimmy Brown The News Boy
TTITLE9=Fire On The Mountain
TTITLE10=Closing Theme
TTITLE11=Theme And Introduction
TTITLE12=Alcatraz Island Blues
TTITLE13=I Love You Until I'm Dizzy
TTITLE14=Katy HIll
TTITLE15=Shine On Me
TTITLE16=Darling Corey
TTITLE17=Bluegrass Breakdown
TTITLE18=I Am A PIlgrim
TTITLE19=Rabbit In A Log
TTITLE20=Working On A Building
TTITLE21=Cotton-Eyed Joe
TTITLE22=Closing Theme
EXTD=
EXTT0=
EXTT1=
EXTT2=
EXTT3=
EXTT4=
EXTT5=
EXTT6=
EXTT7=
EXTT8=
EXTT9=
EXTT10=
EXTT11=
EXTT12=
EXTT13=
EXTT14=
EXTT15=
EXTT16=
EXTT17=
EXTT18=
EXTT19=
EXTT20=
EXTT21=
EXTT22=
PLAYORDER=
